<?xml version="1.0" standalone="no"?>
<!DOCTYPE svg PUBLIC "-//W3C//DTD SVG 20010904//EN"
 "http://www.w3.org/TR/2001/REC-SVG-20010904/DTD/svg10.dtd">
<svg version="1.0" xmlns="http://www.w3.org/2000/svg"
 width="626.000000pt" height="313.000000pt" viewBox="0 0 626.000000 313.000000"
 preserveAspectRatio="xMidYMid meet">

<g transform="translate(0.000000,313.000000) scale(0.100000,-0.100000)"
fill="#000000" stroke="none">
<path d="M457 2049 c-97 -23 -191 -101 -235 -197 -21 -46 -26 -72 -27 -137 0
-76 2 -85 51 -185 50 -104 169 -290 257 -403 l45 -58 44 58 c139 181 277 426
298 527 14 67 2 144 -34 213 -74 145 -239 220 -399 182z m186 -45 c63 -21 130
-83 164 -152 23 -47 28 -69 27 -127 -1 -85 -20 -131 -80 -195 -112 -120 -296
-125 -413 -11 -82 80 -109 187 -75 301 20 68 107 159 174 183 59 20 145 21
203 1z"/>
<path d="M330 1740 c0 -91 7 -109 25 -67 7 14 19 22 35 22 16 0 28 -8 35 -22
9 -22 15 -23 120 -23 105 0 111 1 120 23 16 35 60 35 79 0 l15 -28 1 46 c0 42
-3 48 -25 53 -18 5 -25 13 -25 31 0 20 5 25 25 25 16 0 25 6 25 15 0 13 -31
15 -215 15 l-215 0 0 -90z m90 40 c0 -17 -7 -20 -40 -20 -33 0 -40 3 -40 20 0
17 7 20 40 20 33 0 40 -3 40 -20z m280 0 c0 -17 -7 -20 -40 -20 -25 0 -40 5
-41 13 0 10 -2 10 -6 0 -3 -9 -32 -13 -94 -13 -82 0 -89 1 -89 20 0 19 7 20
135 20 128 0 135 -1 135 -20z"/>
<path d="M364 1676 c-10 -26 4 -48 28 -44 17 2 23 10 23 28 0 18 -6 26 -23 28
-13 2 -25 -3 -28 -12z"/>
<path d="M684 1676 c-9 -24 4 -48 23 -44 12 2 18 12 18 28 0 29 -32 41 -41 16z"/>
<path d="M5603 2040 c-156 -51 -264 -230 -232 -384 22 -104 141 -311 290 -507
l61 -80 48 64 c125 166 243 366 280 477 89 265 -175 519 -447 430z m221 -41
c75 -28 150 -109 172 -187 43 -145 -31 -299 -172 -358 -57 -24 -158 -22 -219
5 -110 48 -179 154 -179 271 1 206 203 342 398 269z"/>
<path d="M5500 1740 c0 -91 7 -109 25 -67 15 34 62 35 77 3 11 -26 13 -26 118
-26 105 0 107 0 118 26 16 34 61 30 79 -6 12 -24 13 -22 13 21 0 42 -3 48 -25
53 -18 5 -25 13 -25 31 0 20 5 25 25 25 16 0 25 6 25 15 0 13 -31 15 -215 15
l-215 0 0 -90z m190 40 c0 -19 -7 -20 -90 -20 -83 0 -90 1 -90 20 0 19 7 20
90 20 83 0 90 -1 90 -20z m90 0 c0 -17 -7 -20 -40 -20 -33 0 -40 3 -40 20 0
17 7 20 40 20 33 0 40 -3 40 -20z m90 0 c0 -17 -7 -20 -40 -20 -33 0 -40 3
-40 20 0 17 7 20 40 20 33 0 40 -3 40 -20z"/>
<path d="M5540 1675 c-11 -13 -11 -19 3 -32 21 -21 49 -9 45 19 -4 28 -30 35
-48 13z"/>
<path d="M5854 1675 c-8 -21 2 -45 19 -45 8 0 20 7 27 15 10 12 10 18 0 30 -7
8 -19 15 -27 15 -7 0 -16 -7 -19 -15z"/>
<path d="M2402 1433 l3 -248 33 -3 c31 -3 32 -2 32 33 0 29 8 45 34 71 28 28
41 34 78 34 24 0 54 -7 66 -16 28 -19 52 -65 52 -99 l0 -25 330 0 330 0 0 36
c0 28 8 44 34 70 29 29 41 34 80 34 62 0 105 -37 113 -98 5 -37 9 -43 27 -40
21 3 21 6 21 248 l0 245 -618 3 -617 2 2 -247z m276 115 l3 -58 -126 0 -125 0
0 53 c0 30 3 57 7 61 4 3 59 5 122 4 l116 -3 3 -57z m262 2 l0 -60 -120 0
-120 0 0 60 0 60 120 0 120 0 0 -60z m260 0 l0 -60 -120 0 -120 0 0 60 0 60
120 0 120 0 0 -60z m268 -2 l3 -58 -126 0 -125 0 0 53 c0 30 3 57 7 61 4 3 59
5 122 4 l116 -3 3 -57z m153 30 c2 -18 2 -61 -1 -96 l-5 -62 -62 29 -61 29 -4
59 c-2 32 -3 61 -1 66 3 4 33 7 67 7 l64 0 3 -32z"/>
<path d="M2538 1285 c-33 -18 -52 -72 -39 -108 22 -58 103 -76 146 -32 70 70
-20 188 -107 140z"/>
<path d="M3450 1293 c-62 -23 -81 -103 -35 -148 55 -56 145 -16 145 63 0 57
-61 104 -110 85z"/>
<path d="M598 1073 c12 -2 32 -2 45 0 12 2 2 4 -23 4 -25 0 -35 -2 -22 -4z"/>
<path d="M758 1073 c12 -2 30 -2 40 0 9 3 -1 5 -23 4 -22 0 -30 -2 -17 -4z"/>
<path d="M908 1073 c12 -2 30 -2 40 0 9 3 -1 5 -23 4 -22 0 -30 -2 -17 -4z"/>
<path d="M1058 1073 c12 -2 32 -2 45 0 12 2 2 4 -23 4 -25 0 -35 -2 -22 -4z"/>
<path d="M1208 1073 c12 -2 32 -2 45 0 12 2 2 4 -23 4 -25 0 -35 -2 -22 -4z"/>
<path d="M1368 1073 c12 -2 30 -2 40 0 9 3 -1 5 -23 4 -22 0 -30 -2 -17 -4z"/>
<path d="M1518 1073 c12 -2 30 -2 40 0 9 3 -1 5 -23 4 -22 0 -30 -2 -17 -4z"/>
<path d="M1668 1073 c12 -2 30 -2 40 0 9 3 -1 5 -23 4 -22 0 -30 -2 -17 -4z"/>
<path d="M1818 1073 c12 -2 32 -2 45 0 12 2 2 4 -23 4 -25 0 -35 -2 -22 -4z"/>
<path d="M1968 1073 c12 -2 32 -2 45 0 12 2 2 4 -23 4 -25 0 -35 -2 -22 -4z"/>
<path d="M2128 1073 c12 -2 30 -2 40 0 9 3 -1 5 -23 4 -22 0 -30 -2 -17 -4z"/>
<path d="M2278 1073 c12 -2 30 -2 40 0 9 3 -1 5 -23 4 -22 0 -30 -2 -17 -4z"/>
<path d="M2428 1073 c12 -2 32 -2 45 0 12 2 2 4 -23 4 -25 0 -35 -2 -22 -4z"/>
<path d="M2578 1073 c12 -2 32 -2 45 0 12 2 2 4 -23 4 -25 0 -35 -2 -22 -4z"/>
<path d="M2738 1073 c12 -2 30 -2 40 0 9 3 -1 5 -23 4 -22 0 -30 -2 -17 -4z"/>
<path d="M2888 1073 c12 -2 30 -2 40 0 9 3 -1 5 -23 4 -22 0 -30 -2 -17 -4z"/>
<path d="M3038 1073 c12 -2 30 -2 40 0 9 3 -1 5 -23 4 -22 0 -30 -2 -17 -4z"/>
<path d="M3188 1073 c12 -2 32 -2 45 0 12 2 2 4 -23 4 -25 0 -35 -2 -22 -4z"/>
<path d="M3338 1073 c12 -2 32 -2 45 0 12 2 2 4 -23 4 -25 0 -35 -2 -22 -4z"/>
<path d="M3498 1073 c12 -2 30 -2 40 0 9 3 -1 5 -23 4 -22 0 -30 -2 -17 -4z"/>
<path d="M3648 1073 c12 -2 30 -2 40 0 9 3 -1 5 -23 4 -22 0 -30 -2 -17 -4z"/>
<path d="M3798 1073 c12 -2 30 -2 40 0 9 3 -1 5 -23 4 -22 0 -30 -2 -17 -4z"/>
<path d="M3948 1073 c12 -2 32 -2 45 0 12 2 2 4 -23 4 -25 0 -35 -2 -22 -4z"/>
<path d="M4108 1073 c12 -2 30 -2 40 0 9 3 -1 5 -23 4 -22 0 -30 -2 -17 -4z"/>
<path d="M4258 1073 c12 -2 30 -2 40 0 9 3 -1 5 -23 4 -22 0 -30 -2 -17 -4z"/>
<path d="M4408 1073 c12 -2 30 -2 40 0 9 3 -1 5 -23 4 -22 0 -30 -2 -17 -4z"/>
<path d="M4558 1073 c12 -2 32 -2 45 0 12 2 2 4 -23 4 -25 0 -35 -2 -22 -4z"/>
<path d="M4708 1073 c12 -2 32 -2 45 0 12 2 2 4 -23 4 -25 0 -35 -2 -22 -4z"/>
<path d="M4868 1073 c12 -2 30 -2 40 0 9 3 -1 5 -23 4 -22 0 -30 -2 -17 -4z"/>
<path d="M5018 1073 c12 -2 30 -2 40 0 9 3 -1 5 -23 4 -22 0 -30 -2 -17 -4z"/>
<path d="M5168 1073 c12 -2 30 -2 40 0 9 3 -1 5 -23 4 -22 0 -30 -2 -17 -4z"/>
<path d="M5318 1073 c12 -2 32 -2 45 0 12 2 2 4 -23 4 -25 0 -35 -2 -22 -4z"/>
<path d="M5468 1073 c12 -2 32 -2 45 0 12 2 2 4 -23 4 -25 0 -35 -2 -22 -4z"/>
<path d="M5628 1073 c12 -2 30 -2 40 0 9 3 -1 5 -23 4 -22 0 -30 -2 -17 -4z"/>
</g>
</svg>
